<svg width="108" height="108" viewBox="0 0 108 108" fill="none" xmlns="http://www.w3.org/2000/svg">
<g filter="url(#filter0_d)">
<rect width="55.0794" height="55.0794" rx="10" transform="matrix(-0.866025 -0.5 -0.5 0.866025 91.8628 43.2559)" fill="#FA4B8C"/>
</g>
<path d="M48.9673 40.0617C50.8422 39.4462 52.811 39.6476 54.5111 40.6291C55.7819 41.3629 56.7067 42.4488 57.26 43.8566C57.5391 44.5672 57.7165 45.3417 57.7898 46.1686C58.5423 45.8187 59.3021 45.585 60.0571 45.4715C61.5529 45.2467 62.9557 45.5046 64.2265 46.2383C65.9266 47.2199 67.0856 48.8243 67.49 50.7558C67.8893 52.6646 67.5168 54.7422 66.4407 56.6061C65.3332 58.5244 63.6255 59.8799 61.0665 60.8719C58.7773 61.7592 55.8911 62.3352 52.5487 63.0021C51.4074 63.2299 50.1137 63.4881 48.7587 63.7764C48.4005 63.853 48.0308 63.7955 47.7174 63.6146C47.4041 63.4337 47.1693 63.1422 47.0567 62.7942C46.629 61.4764 46.2055 60.2263 45.832 59.1234C44.7385 55.896 43.7941 53.1086 43.418 50.6823C42.9975 47.9703 43.3177 45.8138 44.4254 43.8953C45.5014 42.0316 47.1144 40.6702 48.9673 40.0617Z" fill="white"/>
<defs>
<filter id="filter0_d" x="0.622925" y="0.716064" width="107.24" height="107.24" filterUnits="userSpaceOnUse" color-interpolation-filters="sRGB">
<feFlood flood-opacity="0" result="BackgroundImageFix"/>
<feColorMatrix in="SourceAlpha" type="matrix" values="0 0 0 0 0 0 0 0 0 0 0 0 0 0 0 0 0 0 127 0" result="hardAlpha"/>
<feOffset dy="1"/>
<feGaussianBlur stdDeviation="8"/>
<feColorMatrix type="matrix" values="0 0 0 0 0.980392 0 0 0 0 0.294118 0 0 0 0 0.54902 0 0 0 0.52 0"/>
<feBlend mode="normal" in2="BackgroundImageFix" result="effect1_dropShadow"/>
<feBlend mode="normal" in="SourceGraphic" in2="effect1_dropShadow" result="shape"/>
</filter>
</defs>
</svg>
