<svg width="121" height="19" viewBox="0 0 121 19" fill="none" xmlns="http://www.w3.org/2000/svg">
<mask id="path-1-outside-1" maskUnits="userSpaceOnUse" x="0" y="0" width="121" height="19" fill="black">
<rect fill="white" width="121" height="19"/>
<path d="M16.0932 18L15.2824 7.92364H15.1785L11.6651 17.897H9.33662L5.82318 7.92364H5.71923L4.90844 18H1L2.53843 1H6.69634L10.5008 10.8085L14.3053 1H18.4632L20.0017 18H16.0932Z"/>
<path d="M32.3775 1L39.3004 18H35.1009L33.8327 14.6H27.3048L26.0367 18H21.8372L28.7601 1H32.3775ZM32.5022 11.2L30.5896 6.25455H30.548L28.6354 11.2H32.5022Z"/>
<path d="M42.0484 1H48.1813C49.8306 1 51.175 1.4396 52.2145 2.31879C53.2539 3.18424 53.7737 4.42748 53.7737 6.04848C53.7737 7.29859 53.4549 8.3495 52.8174 9.20121C52.1937 10.0392 51.3413 10.6299 50.2602 10.9733L56.1645 18H51.1958L45.9568 11.2824V18H42.0484V1ZM45.9568 8.54182H46.4142C46.7745 8.54182 47.0794 8.53495 47.3289 8.52121C47.5784 8.50747 47.8625 8.45939 48.1813 8.37697C48.5001 8.29455 48.7565 8.17778 48.9505 8.02667C49.1445 7.87556 49.3109 7.65576 49.4495 7.36727C49.588 7.07879 49.6573 6.72849 49.6573 6.31636C49.6573 5.90424 49.588 5.55394 49.4495 5.26545C49.3109 4.97697 49.1445 4.75717 48.9505 4.60606C48.7565 4.45495 48.5001 4.33818 48.1813 4.25576C47.8625 4.17333 47.5784 4.12525 47.3289 4.11152C47.0794 4.09778 46.7745 4.09091 46.4142 4.09091H45.9568V8.54182Z"/>
<path d="M57.0955 4.4V1H69.1534V4.4H65.0787V18H61.1702V4.4H57.0955Z"/>
<path d="M80.3559 1L87.2788 18H83.0793L81.8112 14.6H75.2833L74.0151 18H69.8156L76.7385 1H80.3559ZM80.4807 11.2L78.568 6.25455H78.5264L76.6138 11.2H80.4807Z"/>
<path d="M90.0268 1H95.3489C96.9566 1 98.2387 1.34343 99.195 2.0303C100.151 2.70343 100.629 3.80242 100.629 5.32727C100.629 7.03071 99.9157 8.24646 98.4881 8.97455C100.927 9.4004 102.147 10.8291 102.147 13.2606C102.147 14.6893 101.648 15.8364 100.65 16.7018C99.6524 17.5673 98.2803 18 96.5339 18H90.0268V1ZM93.9352 7.65576H94.2471C95.1202 7.65576 95.7716 7.50465 96.2013 7.20242C96.6309 6.9002 96.8458 6.40566 96.8458 5.71879C96.8458 4.56485 95.9795 3.98788 94.2471 3.98788H93.9352V7.65576ZM93.9352 15.0121H95.1618C97.0745 15.0121 98.0308 14.3802 98.0308 13.1164C98.0308 12.3608 97.7882 11.8182 97.3031 11.4885C96.8319 11.1588 96.1181 10.9939 95.1618 10.9939H93.9352V15.0121Z"/>
<path d="M103.452 1H108.15L111.726 6.44L115.302 1H120L113.68 10.3758V18H109.772V10.3758L103.452 1Z"/>
</mask>
<path d="M16.0932 18L15.2824 7.92364H15.1785L11.6651 17.897H9.33662L5.82318 7.92364H5.71923L4.90844 18H1L2.53843 1H6.69634L10.5008 10.8085L14.3053 1H18.4632L20.0017 18H16.0932Z" fill="url(#paint0_linear)"/>
<path d="M32.3775 1L39.3004 18H35.1009L33.8327 14.6H27.3048L26.0367 18H21.8372L28.7601 1H32.3775ZM32.5022 11.2L30.5896 6.25455H30.548L28.6354 11.2H32.5022Z" fill="url(#paint1_linear)"/>
<path d="M42.0484 1H48.1813C49.8306 1 51.175 1.4396 52.2145 2.31879C53.2539 3.18424 53.7737 4.42748 53.7737 6.04848C53.7737 7.29859 53.4549 8.3495 52.8174 9.20121C52.1937 10.0392 51.3413 10.6299 50.2602 10.9733L56.1645 18H51.1958L45.9568 11.2824V18H42.0484V1ZM45.9568 8.54182H46.4142C46.7745 8.54182 47.0794 8.53495 47.3289 8.52121C47.5784 8.50747 47.8625 8.45939 48.1813 8.37697C48.5001 8.29455 48.7565 8.17778 48.9505 8.02667C49.1445 7.87556 49.3109 7.65576 49.4495 7.36727C49.588 7.07879 49.6573 6.72849 49.6573 6.31636C49.6573 5.90424 49.588 5.55394 49.4495 5.26545C49.3109 4.97697 49.1445 4.75717 48.9505 4.60606C48.7565 4.45495 48.5001 4.33818 48.1813 4.25576C47.8625 4.17333 47.5784 4.12525 47.3289 4.11152C47.0794 4.09778 46.7745 4.09091 46.4142 4.09091H45.9568V8.54182Z" fill="url(#paint2_linear)"/>
<path d="M57.0955 4.4V1H69.1534V4.4H65.0787V18H61.1702V4.4H57.0955Z" fill="url(#paint3_linear)"/>
<path d="M80.3559 1L87.2788 18H83.0793L81.8112 14.6H75.2833L74.0151 18H69.8156L76.7385 1H80.3559ZM80.4807 11.2L78.568 6.25455H78.5264L76.6138 11.2H80.4807Z" fill="url(#paint4_linear)"/>
<path d="M90.0268 1H95.3489C96.9566 1 98.2387 1.34343 99.195 2.0303C100.151 2.70343 100.629 3.80242 100.629 5.32727C100.629 7.03071 99.9157 8.24646 98.4881 8.97455C100.927 9.4004 102.147 10.8291 102.147 13.2606C102.147 14.6893 101.648 15.8364 100.65 16.7018C99.6524 17.5673 98.2803 18 96.5339 18H90.0268V1ZM93.9352 7.65576H94.2471C95.1202 7.65576 95.7716 7.50465 96.2013 7.20242C96.6309 6.9002 96.8458 6.40566 96.8458 5.71879C96.8458 4.56485 95.9795 3.98788 94.2471 3.98788H93.9352V7.65576ZM93.9352 15.0121H95.1618C97.0745 15.0121 98.0308 14.3802 98.0308 13.1164C98.0308 12.3608 97.7882 11.8182 97.3031 11.4885C96.8319 11.1588 96.1181 10.9939 95.1618 10.9939H93.9352V15.0121Z" fill="url(#paint5_linear)"/>
<path d="M103.452 1H108.15L111.726 6.44L115.302 1H120L113.68 10.3758V18H109.772V10.3758L103.452 1Z" fill="url(#paint6_linear)"/>
<path d="M16.0932 18L15.2824 7.92364H15.1785L11.6651 17.897H9.33662L5.82318 7.92364H5.71923L4.90844 18H1L2.53843 1H6.69634L10.5008 10.8085L14.3053 1H18.4632L20.0017 18H16.0932Z" stroke="#6078FF" stroke-width="0.4" mask="url(#path-1-outside-1)"/>
<path d="M32.3775 1L39.3004 18H35.1009L33.8327 14.6H27.3048L26.0367 18H21.8372L28.7601 1H32.3775ZM32.5022 11.2L30.5896 6.25455H30.548L28.6354 11.2H32.5022Z" stroke="#6078FF" stroke-width="0.4" mask="url(#path-1-outside-1)"/>
<path d="M42.0484 1H48.1813C49.8306 1 51.175 1.4396 52.2145 2.31879C53.2539 3.18424 53.7737 4.42748 53.7737 6.04848C53.7737 7.29859 53.4549 8.3495 52.8174 9.20121C52.1937 10.0392 51.3413 10.6299 50.2602 10.9733L56.1645 18H51.1958L45.9568 11.2824V18H42.0484V1ZM45.9568 8.54182H46.4142C46.7745 8.54182 47.0794 8.53495 47.3289 8.52121C47.5784 8.50747 47.8625 8.45939 48.1813 8.37697C48.5001 8.29455 48.7565 8.17778 48.9505 8.02667C49.1445 7.87556 49.3109 7.65576 49.4495 7.36727C49.588 7.07879 49.6573 6.72849 49.6573 6.31636C49.6573 5.90424 49.588 5.55394 49.4495 5.26545C49.3109 4.97697 49.1445 4.75717 48.9505 4.60606C48.7565 4.45495 48.5001 4.33818 48.1813 4.25576C47.8625 4.17333 47.5784 4.12525 47.3289 4.11152C47.0794 4.09778 46.7745 4.09091 46.4142 4.09091H45.9568V8.54182Z" stroke="#6078FF" stroke-width="0.4" mask="url(#path-1-outside-1)"/>
<path d="M57.0955 4.4V1H69.1534V4.4H65.0787V18H61.1702V4.4H57.0955Z" stroke="#6078FF" stroke-width="0.4" mask="url(#path-1-outside-1)"/>
<path d="M80.3559 1L87.2788 18H83.0793L81.8112 14.6H75.2833L74.0151 18H69.8156L76.7385 1H80.3559ZM80.4807 11.2L78.568 6.25455H78.5264L76.6138 11.2H80.4807Z" stroke="#6078FF" stroke-width="0.4" mask="url(#path-1-outside-1)"/>
<path d="M90.0268 1H95.3489C96.9566 1 98.2387 1.34343 99.195 2.0303C100.151 2.70343 100.629 3.80242 100.629 5.32727C100.629 7.03071 99.9157 8.24646 98.4881 8.97455C100.927 9.4004 102.147 10.8291 102.147 13.2606C102.147 14.6893 101.648 15.8364 100.65 16.7018C99.6524 17.5673 98.2803 18 96.5339 18H90.0268V1ZM93.9352 7.65576H94.2471C95.1202 7.65576 95.7716 7.50465 96.2013 7.20242C96.6309 6.9002 96.8458 6.40566 96.8458 5.71879C96.8458 4.56485 95.9795 3.98788 94.2471 3.98788H93.9352V7.65576ZM93.9352 15.0121H95.1618C97.0745 15.0121 98.0308 14.3802 98.0308 13.1164C98.0308 12.3608 97.7882 11.8182 97.3031 11.4885C96.8319 11.1588 96.1181 10.9939 95.1618 10.9939H93.9352V15.0121Z" stroke="#6078FF" stroke-width="0.4" mask="url(#path-1-outside-1)"/>
<path d="M103.452 1H108.15L111.726 6.44L115.302 1H120L113.68 10.3758V18H109.772V10.3758L103.452 1Z" stroke="#6078FF" stroke-width="0.4" mask="url(#path-1-outside-1)"/>
<defs>
<linearGradient id="paint0_linear" x1="0.999999" y1="9.5" x2="120" y2="9.49999" gradientUnits="userSpaceOnUse">
<stop stop-color="#6078FF"/>
<stop offset="1" stop-color="#794CD6"/>
<stop offset="1" stop-color="#794CD6"/>
</linearGradient>
<linearGradient id="paint1_linear" x1="0.999999" y1="9.5" x2="120" y2="9.49999" gradientUnits="userSpaceOnUse">
<stop stop-color="#6078FF"/>
<stop offset="1" stop-color="#794CD6"/>
<stop offset="1" stop-color="#794CD6"/>
</linearGradient>
<linearGradient id="paint2_linear" x1="0.999999" y1="9.5" x2="120" y2="9.49999" gradientUnits="userSpaceOnUse">
<stop stop-color="#6078FF"/>
<stop offset="1" stop-color="#794CD6"/>
<stop offset="1" stop-color="#794CD6"/>
</linearGradient>
<linearGradient id="paint3_linear" x1="0.999999" y1="9.5" x2="120" y2="9.49999" gradientUnits="userSpaceOnUse">
<stop stop-color="#6078FF"/>
<stop offset="1" stop-color="#794CD6"/>
<stop offset="1" stop-color="#794CD6"/>
</linearGradient>
<linearGradient id="paint4_linear" x1="0.999999" y1="9.5" x2="120" y2="9.49999" gradientUnits="userSpaceOnUse">
<stop stop-color="#6078FF"/>
<stop offset="1" stop-color="#794CD6"/>
<stop offset="1" stop-color="#794CD6"/>
</linearGradient>
<linearGradient id="paint5_linear" x1="0.999999" y1="9.5" x2="120" y2="9.49999" gradientUnits="userSpaceOnUse">
<stop stop-color="#6078FF"/>
<stop offset="1" stop-color="#794CD6"/>
<stop offset="1" stop-color="#794CD6"/>
</linearGradient>
<linearGradient id="paint6_linear" x1="0.999999" y1="9.5" x2="120" y2="9.49999" gradientUnits="userSpaceOnUse">
<stop stop-color="#6078FF"/>
<stop offset="1" stop-color="#794CD6"/>
<stop offset="1" stop-color="#794CD6"/>
</linearGradient>
</defs>
</svg>
