<svg width="101" height="101" viewBox="0 0 101 101" fill="none" xmlns="http://www.w3.org/2000/svg">
<g filter="url(#filter0_d)">
<rect x="40.7266" y="11.7759" width="55.0794" height="55.0794" rx="10" transform="rotate(30 40.7266 11.7759)" fill="#28CF69"/>
</g>
<g clip-path="url(#clip0)">
<path d="M57.2766 38.4164C50.7266 34.6348 42.6837 36.2598 39.3469 42.0393C37.9373 44.4808 37.5377 47.4044 38.2135 50.2947C37.733 51.9307 36.4329 53.207 34.7797 53.65C34.0884 53.8353 33.9627 54.7687 34.5851 55.128C36.5762 56.2776 38.9459 56.6059 41.1663 56.0536C42.2866 57.3719 43.6327 58.4884 45.1742 59.3784C51.7241 63.16 59.8602 61.5887 63.197 55.8092C66.5338 50.0297 63.8265 42.198 57.2766 38.4164ZM44.5184 47.8201C43.3625 47.1527 42.9651 45.6695 43.6325 44.5136C44.2998 43.3577 45.783 42.9603 46.9389 43.6277C48.0948 44.295 48.4922 45.7782 47.8249 46.9341C47.1575 48.09 45.6743 48.4874 44.5184 47.8201ZM50.1083 51.0474C48.9524 50.38 48.555 48.8968 49.2223 47.7409C49.8897 46.585 51.3729 46.1876 52.5288 46.855C53.6847 47.5223 54.0821 49.0055 53.4147 50.1614C52.7474 51.3173 51.2642 51.7147 50.1083 51.0474ZM55.6981 54.2747C54.5423 53.6073 54.1448 52.1241 54.8122 50.9682C55.4795 49.8123 56.9627 49.4149 58.1186 50.0823C59.2745 50.7496 59.6719 52.2328 59.0046 53.3887C58.3372 54.5446 56.854 54.942 55.6981 54.2747Z" fill="white"/>
</g>
<defs>
<filter id="filter0_d" x="0.845444" y="0.43457" width="99.9227" height="99.9227" filterUnits="userSpaceOnUse" color-interpolation-filters="sRGB">
<feFlood flood-opacity="0" result="BackgroundImageFix"/>
<feColorMatrix in="SourceAlpha" type="matrix" values="0 0 0 0 0 0 0 0 0 0 0 0 0 0 0 0 0 0 127 0" result="hardAlpha"/>
<feOffset dy="1"/>
<feGaussianBlur stdDeviation="8"/>
<feColorMatrix type="matrix" values="0 0 0 0 0.156863 0 0 0 0 0.811765 0 0 0 0 0.411765 0 0 0 1 0"/>
<feBlend mode="normal" in2="BackgroundImageFix" result="effect1_dropShadow"/>
<feBlend mode="normal" in="SourceGraphic" in2="effect1_dropShadow" result="shape"/>
</filter>
<clipPath id="clip0">
<rect width="27.5397" height="27.5397" fill="white" transform="translate(45.8278 30.8123) rotate(30)"/>
</clipPath>
</defs>
</svg>
