<svg width="96" height="96" viewBox="0 0 96 96" fill="none" xmlns="http://www.w3.org/2000/svg">
<g filter="url(#filter0_d)">
<rect x="14.7141" y="27.0806" width="55.0794" height="55.0794" rx="10" transform="rotate(-15 14.7141 27.0806)" fill="#6078FF"/>
</g>
<g clip-path="url(#clip0)">
<path d="M52.048 37.842L53.1747 37.5401L53.4766 38.6668C53.6382 39.2699 54.2581 39.6278 54.8612 39.4662C55.4644 39.3046 55.8223 38.6847 55.6607 38.0815L55.3588 36.9549L56.4855 36.6529C57.0887 36.4913 57.4466 35.8714 57.285 35.2683C57.1234 34.6651 56.5034 34.3072 55.9003 34.4688L54.7736 34.7707L54.4717 33.644C54.31 33.0409 53.6901 32.683 53.087 32.8446C52.4839 33.0062 52.1259 33.6261 52.2875 34.2292L52.5895 35.356L51.4628 35.6579C50.8596 35.8195 50.5017 36.4394 50.6633 37.0425C50.8249 37.6457 51.4449 38.0036 52.048 37.842Z" fill="white"/>
<path d="M45.8522 50.2202C48.9157 49.3993 50.7337 46.2504 49.9128 43.1869C49.092 40.1234 45.9431 38.3054 42.8795 39.1262C39.816 39.9471 37.998 43.096 38.8189 46.1595C39.6397 49.223 42.7887 51.041 45.8522 50.2202Z" fill="white"/>
<path d="M57.8924 55.3189C57.108 52.3915 55.1481 50.0863 52.629 48.8054C52.0492 48.5106 51.3403 48.6832 50.972 49.2194C48.7382 52.4714 44.4804 53.613 40.919 51.9133C40.3327 51.6335 39.631 51.8351 39.278 52.3804C37.7472 54.7456 37.1821 57.7233 37.9653 60.6526C38.1267 61.2562 38.7479 61.6191 39.3514 61.4574L57.093 56.7036C57.6944 56.5424 58.0544 55.9237 57.8924 55.3189Z" fill="white"/>
<path d="M60.952 48.358C60.4795 49.0123 59.8667 49.5691 59.1433 49.9772C58.5897 50.2896 58.4018 50.9955 58.7274 51.5415C59.7348 53.2309 60.09 54.7843 60.0764 54.7336C60.2381 55.3367 60.858 55.6947 61.4611 55.533L63.7581 54.9176C64.3612 54.756 64.7191 54.136 64.5575 53.5329C63.6459 50.1307 63.5748 49.4399 62.7821 48.3419C62.3309 47.717 61.4033 47.7332 60.952 48.358Z" fill="white"/>
<path d="M57.244 48.3571C59.0821 47.8646 60.1729 45.9752 59.6804 44.1371C59.1879 42.299 57.2986 41.2082 55.4605 41.7007C53.6224 42.1933 52.5316 44.0826 53.0241 45.9207C53.5166 47.7588 55.4059 48.8496 57.244 48.3571Z" fill="white"/>
</g>
<defs>
<filter id="filter0_d" x="0.959076" y="0.0698242" width="94.9683" height="94.9683" filterUnits="userSpaceOnUse" color-interpolation-filters="sRGB">
<feFlood flood-opacity="0" result="BackgroundImageFix"/>
<feColorMatrix in="SourceAlpha" type="matrix" values="0 0 0 0 0 0 0 0 0 0 0 0 0 0 0 0 0 0 127 0" result="hardAlpha"/>
<feOffset dy="1"/>
<feGaussianBlur stdDeviation="8"/>
<feColorMatrix type="matrix" values="0 0 0 0 0.376471 0 0 0 0 0.470588 0 0 0 0 1 0 0 0 1 0"/>
<feBlend mode="normal" in2="BackgroundImageFix" result="effect1_dropShadow"/>
<feBlend mode="normal" in="SourceGraphic" in2="effect1_dropShadow" result="shape"/>
</filter>
<clipPath id="clip0">
<rect width="27.5397" height="27.5397" fill="white" transform="translate(31.5787 36.8176) rotate(-15)"/>
</clipPath>
</defs>
</svg>
