<svg width="96" height="96" viewBox="0 0 96 96" fill="none" xmlns="http://www.w3.org/2000/svg">
<g filter="url(#filter0_d)">
<rect x="13.999" y="27.8853" width="55.0794" height="55.0794" rx="10" transform="rotate(-15 13.999 27.8853)" fill="#36BEDF"/>
</g>
<g clip-path="url(#clip0)">
<path d="M51.3326 38.6479L52.4593 38.346L52.7612 39.4727C52.9228 40.0758 53.5427 40.4337 54.1459 40.2721C54.749 40.1105 55.1069 39.4906 54.9453 38.8874L54.6434 37.7608L55.7701 37.4588C56.3733 37.2972 56.7312 36.6773 56.5696 36.0742C56.408 35.4711 55.788 35.1131 55.1849 35.2747L54.0582 35.5767L53.7563 34.4499C53.5947 33.8468 52.9747 33.4889 52.3716 33.6505C51.7685 33.8121 51.4105 34.432 51.5721 35.0351L51.8741 36.1619L50.7474 36.4638C50.1442 36.6254 49.7863 37.2453 49.9479 37.8484C50.1095 38.4516 50.7295 38.8095 51.3326 38.6479Z" fill="white"/>
<path d="M45.1367 51.0261C48.2003 50.2052 50.0183 47.0563 49.1974 43.9928C48.3765 40.9293 45.2276 39.1113 42.1641 39.9322C39.1006 40.753 37.2826 43.9019 38.1035 46.9654C38.9243 50.0289 42.0732 51.8469 45.1367 51.0261Z" fill="white"/>
<path d="M57.177 56.1248C56.3926 53.1974 54.4327 50.8922 51.9136 49.6113C51.3338 49.3165 50.6249 49.4891 50.2566 50.0253C48.0228 53.2773 43.7649 54.4189 40.2036 52.7192C39.6173 52.4394 38.9155 52.641 38.5626 53.1863C37.0318 55.5515 36.4667 58.5292 37.2499 61.4585C37.4113 62.0621 38.0325 62.425 38.636 62.2633L56.3776 57.5095C56.9789 57.3483 57.339 56.7296 57.177 56.1248Z" fill="white"/>
<path d="M60.2366 49.1639C59.7641 49.8182 59.1513 50.375 58.4279 50.7832C57.8743 51.0955 57.6863 51.8014 58.0119 52.3474C59.0194 54.0368 59.3746 55.5902 59.361 55.5395C59.5226 56.1426 60.1426 56.5006 60.7457 56.339L63.0427 55.7235C63.6458 55.5619 64.0037 54.9419 63.8421 54.3388C62.9305 50.9366 62.8594 50.2458 62.0666 49.1478C61.6154 48.5229 60.6879 48.5391 60.2366 49.1639Z" fill="white"/>
<path d="M56.5286 49.163C58.3667 48.6705 59.4575 46.7811 58.965 44.943C58.4725 43.1049 56.5831 42.0141 54.7451 42.5067C52.907 42.9992 51.8161 44.8885 52.3087 46.7266C52.8012 48.5647 54.6905 49.6555 56.5286 49.163Z" fill="white"/>
</g>
<defs>
<filter id="filter0_d" x="0.243988" y="0.874512" width="94.9683" height="94.9683" filterUnits="userSpaceOnUse" color-interpolation-filters="sRGB">
<feFlood flood-opacity="0" result="BackgroundImageFix"/>
<feColorMatrix in="SourceAlpha" type="matrix" values="0 0 0 0 0 0 0 0 0 0 0 0 0 0 0 0 0 0 127 0" result="hardAlpha"/>
<feOffset dy="1"/>
<feGaussianBlur stdDeviation="8"/>
<feColorMatrix type="matrix" values="0 0 0 0 0.211765 0 0 0 0 0.745098 0 0 0 0 0.87451 0 0 0 1 0"/>
<feBlend mode="normal" in2="BackgroundImageFix" result="effect1_dropShadow"/>
<feBlend mode="normal" in="SourceGraphic" in2="effect1_dropShadow" result="shape"/>
</filter>
<clipPath id="clip0">
<rect width="27.5397" height="27.5397" fill="white" transform="translate(30.8633 37.6235) rotate(-15)"/>
</clipPath>
</defs>
</svg>
