<svg width="18" height="19" viewBox="0 0 18 19" fill="none" xmlns="http://www.w3.org/2000/svg">
<g clip-path="url(#clip0)">
<path d="M17.9787 1.60948C17.9397 0.894477 17.371 0.325895 16.656 0.286872C15.2133 0.208051 12.3901 0.284727 9.69051 1.68103C8.31432 2.39287 6.85885 3.59975 5.69733 4.99222C5.68302 5.00938 5.6691 5.02664 5.65489 5.04383L3.01888 5.24745C2.58498 5.28099 2.19851 5.50842 1.95853 5.87137L0.160147 8.59148C-0.0218565 8.86675 -0.05079 9.21125 0.0826982 9.513C0.216222 9.81478 0.490581 10.0251 0.816655 10.0756L3.03751 10.4196C3.02967 10.4627 3.0218 10.5059 3.01459 10.5491C2.94066 10.9913 3.08719 11.446 3.40662 11.7654L6.50008 14.8589C6.76492 15.1238 7.12277 15.2698 7.48945 15.2698C7.56497 15.2698 7.6409 15.2635 7.71649 15.2509C7.75966 15.2437 7.8028 15.2358 7.84597 15.228L8.18994 17.4489C8.24046 17.775 8.45076 18.0494 8.75248 18.1828C8.87802 18.2384 9.01087 18.2658 9.14313 18.2658C9.32886 18.2658 9.51329 18.2117 9.67403 18.1054L12.3941 16.307C12.7571 16.067 12.9845 15.6805 13.018 15.2467L13.2216 12.6107C13.2388 12.5965 13.2561 12.5826 13.2733 12.5683C14.6658 11.4067 15.8727 9.95125 16.5845 8.57503C17.9809 5.87534 18.0574 3.05212 17.9787 1.60948ZM11.8125 15.4272L9.21053 17.1475L8.87528 14.9831C9.97496 14.6598 11.0628 14.1419 12.0992 13.4482L11.9665 15.1654C11.9583 15.2725 11.9021 15.368 11.8125 15.4272ZM7.24585 14.1132L4.15235 11.0197C4.07342 10.9407 4.03693 10.8298 4.05483 10.7229C4.1468 10.173 4.28971 9.64947 4.46661 9.1563L9.10822 13.7979C8.51591 14.0101 7.98537 14.1366 7.54257 14.2107C7.43556 14.2285 7.32478 14.1921 7.24585 14.1132ZM3.10012 6.29901L4.8173 6.16637C4.12352 7.20274 3.60567 8.29058 3.28234 9.39027L1.11798 9.05505L2.83832 6.45307C2.89759 6.36342 2.99304 6.30727 3.10012 6.29901ZM12.5978 11.7583C11.7458 12.4689 10.9188 12.9829 10.1566 13.3548L4.91053 8.10875C5.39773 7.11369 5.99232 6.28509 6.50722 5.66782C7.58212 4.37916 8.91901 3.26749 10.1751 2.6178C12.6527 1.33625 15.2631 1.26724 16.5986 1.33994C16.7754 1.34957 16.916 1.49016 16.9256 1.66697C16.9984 3.00248 16.9293 5.61283 15.6477 8.09047C14.9981 9.34653 13.8864 10.6834 12.5978 11.7583Z" fill="#33C3E5"/>
<path d="M12.3299 8.57114C13.005 8.57107 13.6803 8.31407 14.1943 7.80013C14.6923 7.30214 14.9665 6.64 14.9665 5.93575C14.9665 5.2315 14.6922 4.56937 14.1943 4.07138C13.1662 3.04331 11.4935 3.04338 10.4655 4.07138C9.96749 4.56937 9.69324 5.2315 9.69324 5.93575C9.69324 6.64 9.96753 7.30214 10.4655 7.80013C10.9796 8.31418 11.6546 8.57121 12.3299 8.57114ZM11.2112 4.81712C11.5196 4.50869 11.9247 4.3545 12.3298 4.3545C12.735 4.3545 13.1401 4.50869 13.4485 4.81712C13.7472 5.11591 13.9118 5.51318 13.9118 5.93572C13.9118 6.35826 13.7472 6.75556 13.4485 7.05436C12.8317 7.67117 11.828 7.67114 11.2112 7.05436C10.9124 6.75556 10.7478 6.3583 10.7478 5.93575C10.7478 5.51321 10.9124 5.11591 11.2112 4.81712Z" fill="#33C3E5"/>
<path d="M0.53816 15.0991C0.673125 15.0991 0.80809 15.0476 0.911027 14.9446L2.63273 13.2229C2.83868 13.0169 2.83868 12.6831 2.63273 12.4771C2.42682 12.2712 2.09291 12.2712 1.88696 12.4771L0.165293 14.1988C-0.0406526 14.4048 -0.0406526 14.7387 0.165293 14.9446C0.26823 15.0476 0.403195 15.0991 0.53816 15.0991Z" fill="#33C3E5"/>
<path d="M4.21036 14.0551C4.00445 13.8491 3.67054 13.8491 3.46459 14.0551L0.154489 17.3652C-0.0514558 17.5712 -0.0514558 17.905 0.154489 18.111C0.257462 18.214 0.392392 18.2654 0.527357 18.2654C0.662321 18.2654 0.797286 18.214 0.900224 18.111L4.21032 14.8008C4.41631 14.5949 4.41631 14.261 4.21036 14.0551Z" fill="#33C3E5"/>
<path d="M5.04239 15.633L3.32069 17.3547C3.11474 17.5606 3.11474 17.8945 3.32069 18.1005C3.42366 18.2034 3.55862 18.255 3.69355 18.255C3.82848 18.255 3.96348 18.2035 4.06642 18.1005L5.78812 16.3788C5.99407 16.1728 5.99407 15.8389 5.78812 15.633C5.58221 15.427 5.2483 15.427 5.04239 15.633Z" fill="#33C3E5"/>
</g>
<defs>
<clipPath id="clip0">
<rect width="18" height="18" fill="white" transform="translate(0 0.265625)"/>
</clipPath>
</defs>
</svg>
