<svg width="18" height="19" viewBox="0 0 18 19" fill="none" xmlns="http://www.w3.org/2000/svg">
<g clip-path="url(#clip0)">
<path d="M11.966 7.06246L9.52747 7.94803V4.04251C9.52747 3.75129 9.29136 3.51518 9.00013 3.51518C8.70891 3.51518 8.4728 3.75129 8.4728 4.04251V8.33104L7.55454 8.66453C7.28079 8.76391 7.13946 9.06642 7.23888 9.34018C7.31672 9.55452 7.519 9.68765 7.73457 9.68765C7.79434 9.68765 7.85512 9.67742 7.91453 9.65584L8.4728 9.4531V10.0393C8.4728 10.3306 8.70891 10.5667 9.00013 10.5667C9.29136 10.5667 9.52747 10.3306 9.52747 10.0393V9.07008L12.326 8.05377C12.5998 7.95439 12.7411 7.65188 12.6417 7.37812C12.5423 7.10437 12.2397 6.96297 11.966 7.06246Z" fill="#33C3E5"/>
<path d="M17.9737 17.1745L17.6471 15.8647C17.4994 15.2721 17.0894 14.8024 16.5591 14.566C16.7541 14.2642 16.8678 13.9052 16.8678 13.52C16.8678 13.1313 16.7521 12.7693 16.5539 12.4658C17.1333 11.3028 17.4375 10.0135 17.4375 8.70368C17.4375 6.45002 16.5598 4.33124 14.9662 2.73764C13.3726 1.14405 11.2539 0.266434 9.00017 0.266434C6.74647 0.266434 4.62773 1.14409 3.03413 2.73768C1.44054 4.33127 0.562888 6.45005 0.562888 8.70372C0.562888 10.0155 0.866771 11.3026 1.44648 12.4658C1.24831 12.7693 1.13262 13.1313 1.13262 13.52C1.13262 13.9053 1.24631 14.2642 1.44128 14.5661C0.910961 14.8024 0.500979 15.2722 0.353292 15.8647L0.0266984 17.1745C-0.0391828 17.4388 0.0191751 17.7135 0.186936 17.9282C0.354663 18.1429 0.607078 18.266 0.879497 18.266H5.25286C5.52528 18.266 5.77769 18.1429 5.94538 17.9282C5.97752 17.8871 6.00557 17.8437 6.02958 17.7987C6.05359 17.8437 6.08161 17.8871 6.11378 17.9282C6.2815 18.1429 6.53388 18.266 6.8063 18.266H11.1797C11.4521 18.266 11.7045 18.1429 11.8722 17.9282C11.9077 17.8827 11.938 17.8345 11.9636 17.7843C11.9892 17.8345 12.0195 17.8827 12.055 17.9282C12.2228 18.1429 12.4751 18.266 12.7476 18.266H17.1209C17.3933 18.266 17.6458 18.1429 17.8135 17.9282C17.9812 17.7135 18.0396 17.4388 17.9737 17.1745ZM14.9342 14.3989C14.4496 14.3989 14.0553 14.0046 14.0553 13.52C14.0553 13.0354 14.4496 12.6411 14.9342 12.6411C15.4188 12.6411 15.8131 13.0354 15.8131 13.52C15.8131 14.0046 15.4188 14.3989 14.9342 14.3989ZM13.2447 16.1198C13.3425 15.7275 13.6932 15.4535 14.0975 15.4535H15.771C16.1753 15.4535 16.526 15.7275 16.6238 16.1198L16.8959 17.2113H12.9725L13.2447 16.1198ZM3.06613 12.6411C3.55074 12.6411 3.94501 13.0354 3.94501 13.52C3.94501 14.0046 3.55074 14.3989 3.06613 14.3989C2.58151 14.3989 2.18724 14.0046 2.18724 13.52C2.18724 13.0354 2.58151 12.6411 3.06613 12.6411ZM2.22939 15.4535H3.90293C4.30721 15.4535 4.65789 15.7275 4.75569 16.1198L5.02783 17.2113H1.10446L1.37663 16.1198C1.4744 15.7275 1.82511 15.4535 2.22939 15.4535ZM8.99297 14.3989C8.50835 14.3989 8.11408 14.0046 8.11408 13.52C8.11408 13.0354 8.50835 12.6411 8.99297 12.6411C9.47758 12.6411 9.87185 13.0354 9.87185 13.52C9.87185 14.0046 9.47758 14.3989 8.99297 14.3989ZM9.82973 15.4535C10.234 15.4535 10.5847 15.7275 10.6825 16.1198L10.9547 17.2113H7.03126L7.3034 16.1198C7.4012 15.7275 7.75188 15.4535 8.15616 15.4535H9.82973ZM11.9636 16.8984L11.7058 15.8647C11.5581 15.2721 11.1481 14.8024 10.6178 14.566C10.8128 14.2642 10.9265 13.9052 10.9265 13.52C10.9265 12.4538 10.0591 11.5864 8.99297 11.5864C7.92681 11.5864 7.05942 12.4538 7.05942 13.52C7.05942 13.9052 7.17311 14.2642 7.36809 14.566C6.8378 14.8023 6.42782 15.2721 6.28006 15.8647L6.02955 16.8695L5.77903 15.8647C5.63127 15.2721 5.22129 14.8024 4.69101 14.566C4.88598 14.2642 4.99967 13.9052 4.99967 13.52C4.99967 12.4538 4.13228 11.5864 3.06613 11.5864C2.78481 11.5864 2.5176 11.6473 2.27622 11.7558C1.91556 10.9613 1.69872 10.1065 1.63643 9.23102H2.17332C2.46455 9.23102 2.70065 8.99491 2.70065 8.70368C2.70065 8.41246 2.46455 8.17635 2.17332 8.17635H1.6366C1.7529 6.53674 2.40665 5.04327 3.42271 3.87197L3.79999 4.24925C3.90296 4.35222 4.03792 4.40373 4.17285 4.40373C4.30778 4.40373 4.44277 4.35222 4.54571 4.24925C4.75165 4.04335 4.75165 3.70944 4.54571 3.5035L4.16842 3.12622C5.33976 2.11016 6.83323 1.45641 8.47281 1.34011V1.87687C8.47281 2.16809 8.70891 2.4042 9.00014 2.4042C9.29136 2.4042 9.52747 2.16809 9.52747 1.87687V1.34015C11.1671 1.45644 12.6605 2.11019 13.8319 3.12625L13.4546 3.50354C13.2486 3.70944 13.2486 4.04335 13.4546 4.24929C13.5575 4.35226 13.6925 4.40376 13.8274 4.40376C13.9624 4.40376 14.0973 4.35226 14.2003 4.24929L14.5776 3.872C15.5936 5.04334 16.2474 6.53681 16.3637 8.17639H15.8269C15.5357 8.17639 15.2996 8.41249 15.2996 8.70372C15.2996 8.99495 15.5357 9.23105 15.8269 9.23105H16.3637C16.3013 10.1058 16.0842 10.9614 15.7238 11.7557C15.4825 11.6473 15.2154 11.5865 14.9341 11.5865C13.868 11.5865 13.0006 12.4538 13.0006 13.52C13.0006 13.9053 13.1143 14.2642 13.3092 14.5661C12.779 14.8024 12.369 15.2722 12.2212 15.8647L11.9636 16.8984Z" fill="#33C3E5"/>
</g>
<defs>
<clipPath id="clip0">
<rect width="18" height="18" fill="white" transform="translate(0 0.265625)"/>
</clipPath>
</defs>
</svg>
