<svg xmlns="http://www.w3.org/2000/svg" xmlns:xlink="http://www.w3.org/1999/xlink" version="1.1" x="0px" y="0px" viewBox="0 0 100 125" enable-background="new 0 0 100 100" xml:space="preserve"><path d="M61.289,78.511c-1.34,0.577-2.718,1.073-4.108,1.477c-18.351,5.33-37.616-5.265-42.945-23.614  C8.907,38.022,19.5,18.758,37.852,13.429c18.35-5.329,37.615,5.265,42.943,23.615c2.885,9.935,1.109,20.805-4.74,29.321  l11.087,22.159L61.289,78.511z M71.986,74.736l-4.603-9.199l1.469-1.842c5.5-6.921,7.314-16.115,4.854-24.593  c-4.193-14.44-19.354-22.776-33.794-18.583c-14.44,4.193-22.777,19.354-18.583,33.794c4.193,14.439,19.353,22.775,33.793,18.582  c1.521-0.442,3.009-1.017,4.421-1.708l1.448-0.71L71.986,74.736z"/><text x="0" y="115" fill="#000000" font-size="5px" font-weight="bold" font-family="'Helvetica Neue', Helvetica, Arial-Unicode, Arial, Sans-serif">Created by Stephen Plaster</text><text x="0" y="120" fill="#000000" font-size="5px" font-weight="bold" font-family="'Helvetica Neue', Helvetica, Arial-Unicode, Arial, Sans-serif">from the Noun Project</text></svg>