<svg width="101" height="101" viewBox="0 0 101 101" fill="none" xmlns="http://www.w3.org/2000/svg">
<g filter="url(#filter0_d)">
<rect x="40.8622" y="12.2673" width="55.0794" height="55.0794" rx="10" transform="rotate(30 40.8622 12.2673)" fill="#FFC148"/>
</g>
<g clip-path="url(#clip0)">
<path d="M67.3185 48.4529C67.17 47.8958 66.5993 47.565 66.0422 47.7127L55.2382 50.5842L54.4004 47.4573C54.251 46.9009 53.6797 46.5706 53.1229 46.7198L40.4405 50.1181C39.8839 50.2669 39.5536 50.8391 39.7029 51.3955C39.7772 51.6737 39.9576 51.8954 40.1889 52.029C40.4198 52.1623 40.7024 52.2078 40.9804 52.133L52.6552 49.005L53.4927 52.1297C53.6418 52.686 54.2116 53.0154 54.7681 52.868L66.5782 49.729C67.1349 49.5811 67.4665 49.0096 67.3185 48.4529Z" fill="white"/>
<path d="M56.7185 65.2675L35.6088 53.0798L46.562 34.1082C46.8501 33.6092 46.6792 32.9713 46.1802 32.6832C45.6812 32.3951 45.0433 32.566 44.7552 33.065L33.2803 52.9401C32.9923 53.4391 33.1632 54.077 33.6622 54.3651L55.6753 67.0744C56.1743 67.3624 56.8122 67.1915 57.1003 66.6925C57.3884 66.1935 57.2174 65.5556 56.7185 65.2675Z" fill="white"/>
<path d="M66.8491 47.7884L60.0736 43.8766C59.5746 43.5885 58.9367 43.7594 58.6486 44.2584C58.3605 44.7574 58.5314 45.3953 59.0304 45.6834L64.9026 49.0737L61.5121 54.9462C61.2242 55.4448 61.395 56.0831 61.894 56.3712C62.3929 56.6593 63.031 56.488 63.3191 55.989L67.231 49.2134C67.5191 48.7144 67.3481 48.0765 66.8491 47.7884Z" fill="white"/>
</g>
<defs>
<filter id="filter0_d" x="0.981079" y="0.926025" width="99.9227" height="99.9227" filterUnits="userSpaceOnUse" color-interpolation-filters="sRGB">
<feFlood flood-opacity="0" result="BackgroundImageFix"/>
<feColorMatrix in="SourceAlpha" type="matrix" values="0 0 0 0 0 0 0 0 0 0 0 0 0 0 0 0 0 0 127 0" result="hardAlpha"/>
<feOffset dy="1"/>
<feGaussianBlur stdDeviation="8"/>
<feColorMatrix type="matrix" values="0 0 0 0 1 0 0 0 0 0.756863 0 0 0 0 0.282353 0 0 0 1 0"/>
<feBlend mode="normal" in2="BackgroundImageFix" result="effect1_dropShadow"/>
<feBlend mode="normal" in="SourceGraphic" in2="effect1_dropShadow" result="shape"/>
</filter>
<clipPath id="clip0">
<rect width="27.5397" height="27.5397" fill="white" transform="translate(45.9026 31.0776) rotate(30)"/>
</clipPath>
</defs>
</svg>
